<svg xmlns="http://www.w3.org/2000/svg" version="1.1" xmlns:xlink="http://www.w3.org/1999/xlink" xmlns:svgjs="http://svgjs.dev/svgjs" width="1500" height="1500" viewBox="0 0 1500 1500"><rect width="1500" height="1500" fill="#000000"></rect><g transform="matrix(0.6666666666666666,0,0,0.6666666666666666,249.39393939393938,459.81283857182933)"><svg viewBox="0 0 396 229" data-background-color="#636365" preserveAspectRatio="xMidYMid meet" height="867" width="1500" xmlns="http://www.w3.org/2000/svg" xmlns:xlink="http://www.w3.org/1999/xlink"><g id="tight-bounds" transform="matrix(1,0,0,1,0.2400000000000091,0.47034596375618776)"><svg viewBox="0 0 395.52 228.05930807248762" height="228.05930807248762" width="395.52"><g><svg viewBox="0 0 395.52 228.05930807248762" height="228.05930807248762" width="395.52"><g><svg viewBox="0 0 395.52 228.05930807248762" height="228.05930807248762" width="395.52"><g id="textblocktransform"><svg viewBox="0 0 395.52 228.05930807248762" height="228.05930807248762" width="395.52" id="textblock"><g><svg viewBox="0 0 395.52 228.05930807248762" height="228.05930807248762" width="395.52"><g transform="matrix(1,0,0,1,0,0)"><svg width="395.52" viewBox="3.25 -31.55 60.7 35" height="228.05930807248762" data-palette-color="#ffffff"><path d="M10.6 3.45L10.6 3.45Q9.4 3.45 9.4 2.5L9.4 2.5Q9.4 1.55 10.65 0.15L10.65 0.15Q11.8-1.1 14.4-2.53 17-3.95 20.35-5.05L20.35-5.05Q21.1-5.3 21.55-5.3L21.55-5.3Q22.15-5.3 22.15-5.05L22.15-5.05Q22.15-4.8 21.55-4.65L21.55-4.65Q19.45-4.1 17.4-3.08 15.35-2.05 13.75-0.9L13.75-0.9Q11.2 0.95 11.2 1.65L11.2 1.65Q11.2 2.05 12 2.05L12 2.05Q13.75 2.05 17.4-0.1L17.4-0.1Q19.8-1.5 21.95-3.28 24.1-5.05 25.43-6.8 26.75-8.55 26.75-9.95L26.75-9.95Q26.75-11.55 24.85-12.45L24.85-12.45Q23.05-11.5 21.1-10.63 19.15-9.75 17.4-9.05 15.65-8.35 14.38-8 13.1-7.65 12.65-7.75L12.65-7.75Q11.15-8.05 11.15-8.85L11.15-8.85Q11.15-9.55 12.13-10.45 13.1-11.35 14.33-12.1 15.55-12.85 16.3-13.1L16.3-13.1Q19.15-14.1 21.75-14.1L21.75-14.1Q23.55-14.1 25.1-13.55L25.1-13.55Q26.9-14.45 28.83-16.1 30.75-17.75 32.25-19.65 33.75-21.55 34.2-23.2L34.2-23.2Q34.45-24.3 34.45-24.8L34.45-24.8Q34.45-26.75 32.83-27.68 31.2-28.6 28.45-28.6L28.45-28.6Q24.3-28.6 18.75-26.85L18.75-26.85Q15.05-25.7 11.93-24.13 8.8-22.55 6.9-20.93 5-19.3 4.85-17.85L4.85-17.85Q4.8-17.4 4.5-17.15 4.2-16.9 3.85-16.9L3.85-16.9Q3.25-16.9 3.25-17.65L3.25-17.65Q3.25-20.2 7.7-23.05L7.7-23.05Q9.95-24.55 12.73-25.83 15.5-27.1 18.5-28.05 21.5-29 24.38-29.53 27.25-30.05 29.65-30.05L29.65-30.05Q32.9-30.05 34.77-29 36.65-27.95 36.65-25.7L36.65-25.7Q36.65-24.85 36.35-23.8L36.35-23.8Q35.8-21.75 34.2-19.75 32.6-17.75 30.45-16.07 28.3-14.4 26-13.2L26-13.2Q28.8-11.4 28.8-9.15L28.8-9.15Q28.8-6.4 25.3-3.5L25.3-3.5Q23.55-2.05 21.45-0.8 19.35 0.45 17.25 1.4 15.15 2.35 13.4 2.9 11.65 3.45 10.6 3.45ZM7.7 1.85L7.7 1.85Q6.4 1.6 5.88 0.95 5.35 0.3 5.35-0.95L5.35-0.95Q5.35-1.2 5.4-1.7 5.45-2.2 5.55-3L5.55-3Q5.8-4.75 6.88-7.1 7.95-9.45 9.53-12.05 11.1-14.65 12.93-17.15 14.75-19.65 16.55-21.7L16.55-21.7 16.25-21.65Q16-21.65 16-21.9L16-21.9Q16-22.1 16.35-22.75L16.35-22.75Q16.95-23.85 17.75-24.4L17.75-24.4Q18.15-24.7 18.35-24.85 18.55-25 18.6-25.05L18.6-25.05Q18.85-25.3 19.4-25.3L19.4-25.3Q20.05-25.3 20.63-24.95 21.2-24.6 21.2-24.25L21.2-24.25Q21.2-24.1 20.95-23.85L20.95-23.85Q18.75-21.9 15.75-18L15.75-18Q13.7-15.35 11.9-12.65 10.1-9.95 8.93-7.7 7.75-5.45 7.55-4.05L7.55-4.05 7.3-3.05Q7.25-2.95 7.23-2.7 7.2-2.45 7.1-2.05L7.1-2.05Q6.9-1.4 6.9-0.75L6.9-0.75Q6.9 0.35 7.75 0.6L7.75 0.6Q8.4 0.7 8.4 1.35L8.4 1.35Q8.4 1.95 7.7 1.85ZM14.2-9.15L14.2-9.15Q14.4-9.05 14.6-9.05L14.6-9.05Q15.4-9.05 17.55-9.9L17.55-9.9Q18.95-10.45 20.53-11.18 22.1-11.9 23.8-12.8L23.8-12.8Q23.4-12.9 22.88-12.95 22.35-13 21.8-13L21.8-13Q19.75-13 17.7-12.1L17.7-12.1 17.65-12.1Q16.85-11.75 16.18-11.4 15.5-11.05 14.95-10.8L14.95-10.8Q13.9-10.3 13.9-9.65L13.9-9.65Q13.9-9.4 14.2-9.15ZM40.5 3.35L40.5 3.35Q36.7 3.5 34.77 1.8 32.85 0.1 32.85-3.1L32.85-3.1Q32.85-5.05 33.7-7.9L33.7-7.9Q36.05-15.1 40.3-20.5L40.3-20.5Q43.15-24.1 46.3-26.55 49.45-29 52.55-30.28 55.65-31.55 58.35-31.55L58.35-31.55Q58.6-31.55 58.95-31.53 59.3-31.5 59.75-31.45L59.75-31.45Q61.4-31.2 62.67-30 63.95-28.8 63.95-27L63.95-27Q63.95-26.05 63.55-25L63.55-25Q63.05-23.6 61.05-21.4L61.05-21.4Q59.1-19.2 56.17-17.23 53.25-15.25 50.05-14.35L50.05-14.35Q49.05-14.1 48.6-14.1L48.6-14.1Q46.85-14.1 46.85-15.7L46.85-15.7Q46.85-17.65 49.45-20.85L49.45-20.85Q50.15-21.8 50.7-21.8L50.7-21.8Q51-21.75 51-21.35L51-21.35Q50.95-21.05 50.45-20.4L50.45-20.4Q48.6-17.95 48.6-16.4L48.6-16.4Q48.6-15.8 48.92-15.5 49.25-15.2 49.75-15.3L49.75-15.3Q52.65-15.9 54.95-17.4 57.25-18.9 58.92-21.03 60.6-23.15 61.5-25.5L61.5-25.5Q61.9-26.55 61.9-27.4L61.9-27.4Q61.9-28.65 61.07-29.33 60.25-30 59-30L59-30Q55.9-30 51.05-26.8L51.05-26.8Q47.75-24.65 44.65-21.6 41.55-18.55 39.17-15.03 36.8-11.5 35.65-7.9L35.65-7.9Q34.95-5.7 34.95-3.8L34.95-3.8Q34.95-1.1 36.42 0.38 37.9 1.85 40.55 1.85L40.55 1.85Q43.45 1.85 47.5-0.5L47.5-0.5Q50.05-2 52.55-3.95 55.05-5.9 57.22-8.05 59.4-10.2 60.9-12.2L60.9-12.2Q61.3-12.6 61.55-12.6L61.55-12.6Q61.7-12.6 61.7-12.4L61.7-12.4Q61.7-11.9 61.3-11.35L61.3-11.35Q60.1-9.75 58.57-8.13 57.05-6.5 55.15-4.8L55.15-4.8Q52.65-2.55 50-0.73 47.35 1.1 44.9 2.18 42.45 3.25 40.5 3.35Z" opacity="1" transform="matrix(1,0,0,1,0,0)" fill="#ffffff" class="wordmark-text-0" data-fill-palette-color="primary" id="text-0"></path></svg></g></svg></g></svg></g></svg></g></svg></g><defs></defs></svg><rect width="395.52" height="228.05930807248762" fill="none" stroke="none" visibility="hidden"></rect></g></svg></g></svg>